<?xml version="1.0" standalone="no"?>
<!DOCTYPE svg PUBLIC "-//W3C//DTD SVG 20010904//EN"
 "http://www.w3.org/TR/2001/REC-SVG-20010904/DTD/svg10.dtd">
<svg version="1.0" xmlns="http://www.w3.org/2000/svg"
 width="512.000000pt" height="512.000000pt" viewBox="0 0 512.000000 512.000000"
 preserveAspectRatio="xMidYMid meet">
<metadata>
Created by potrace 1.11, written by Peter Selinger 2001-2013
</metadata>
<g transform="translate(0.000000,512.000000) scale(0.100000,-0.100000)"
fill="#000000" stroke="none">
<path d="M1453 5112 c-37 -23 -119 -278 -157 -484 -2 -13 -13 -66 -24 -118
-12 -52 -24 -110 -27 -128 -3 -19 -40 -185 -81 -370 -41 -186 -77 -345 -79
-354 -2 -9 -13 -50 -24 -90 -11 -40 -22 -82 -24 -93 -7 -38 -82 -303 -134
-475 -219 -717 -531 -1371 -860 -1802 l-43 -57 46 -73 c240 -377 627 -680
1087 -852 184 -69 437 -136 611 -161 23 -4 50 -8 61 -10 11 -2 45 -6 75 -10
30 -3 69 -8 85 -10 191 -26 813 -27 975 -1 21 4 86 11 185 21 174 19 481 79
725 142 52 14 102 26 110 28 32 7 184 55 287 91 288 99 521 210 668 319 92 68
119 99 149 165 24 53 28 70 46 190 8 54 5 472 -4 520 -2 14 -7 62 -11 108 -3
45 -8 93 -10 105 -2 12 -9 60 -15 107 -5 47 -12 96 -15 110 -2 14 -7 45 -10
70 -2 25 -7 56 -9 70 -3 14 -7 43 -11 65 -5 38 -13 85 -21 130 -2 11 -9 47
-14 81 -5 33 -24 132 -40 220 -17 87 -35 182 -40 209 -5 28 -25 124 -45 215
-20 91 -38 176 -41 190 -3 14 -16 75 -30 135 -14 61 -27 117 -29 125 -3 12
-44 181 -90 370 -21 89 -74 294 -106 410 -138 514 -266 900 -297 900 -32 -1
-112 -134 -192 -320 -18 -41 -41 -94 -51 -117 -47 -104 -220 -555 -314 -815
l-27 -77 -67 4 c-36 2 -145 7 -241 10 -96 3 -215 8 -265 10 -49 2 -184 7 -300
10 -115 4 -250 8 -300 10 -49 2 -164 7 -255 10 -91 4 -168 10 -171 13 -4 4
-19 45 -34 92 -194 613 -421 1098 -540 1154 -37 18 -45 19 -62 8z m2551 -2226
c263 -154 477 -627 471 -1041 -2 -163 -27 -271 -96 -410 -129 -261 -339 -408
-579 -407 -113 1 -186 22 -277 81 -187 120 -319 342 -367 612 -15 83 -16 300
-1 379 26 140 94 342 148 440 80 143 192 276 282 332 136 85 289 90 419 14z
m-2128 37 c188 -63 368 -289 474 -598 28 -78 45 -144 56 -205 2 -14 9 -49 15
-79 13 -63 16 -257 5 -316 -4 -22 -9 -51 -11 -65 -2 -14 -14 -56 -26 -95 -67
-217 -221 -406 -394 -484 -16 -7 -38 -17 -47 -22 -27 -14 -53 -12 -40 4 8 10
27 92 22 99 -1 2 3 14 8 28 5 14 13 59 17 100 4 41 9 78 11 81 25 42 26 854 0
1039 -2 14 -7 50 -10 80 -23 177 -68 310 -105 310 -46 0 -79 -101 -115 -350
-5 -33 -11 -108 -21 -255 -5 -79 -5 -509 0 -605 5 -101 15 -217 21 -260 14
-98 36 -210 48 -252 8 -25 13 -48 10 -50 -12 -12 -145 6 -208 29 -95 34 -162
80 -243 167 -69 74 -88 103 -143 215 -96 195 -130 465 -85 681 3 14 7 34 9 45
18 93 68 237 116 336 111 225 257 375 415 425 57 18 163 17 221 -3z"/>
<path d="M3778 2893 c-29 -34 -57 -135 -74 -262 -2 -19 -6 -46 -9 -60 -2 -14
-7 -66 -10 -116 -4 -49 -9 -112 -11 -140 -6 -72 -6 -609 0 -680 3 -33 8 -96
11 -140 3 -44 8 -87 10 -95 2 -8 7 -44 10 -80 4 -36 9 -68 11 -71 2 -3 6 -21
9 -40 8 -49 33 -121 50 -142 33 -44 82 27 100 143 2 14 10 68 19 120 8 52 18
136 21 185 4 50 8 115 10 145 5 63 5 573 1 640 -4 59 -16 196 -21 240 -2 19
-7 60 -10 90 -14 125 -61 267 -91 277 -6 2 -17 -4 -26 -14z"/>
</g>
</svg>
